<?xml version="1.0" encoding="UTF-8" standalone="no"?> <!-- Created with Vectornator for iOS (http://vectornator.io/) --><!DOCTYPE svg PUBLIC "-//W3C//DTD SVG 1.1//EN" "http://www.w3.org/Graphics/SVG/1.1/DTD/svg11.dtd">
<svg style="fill-rule:evenodd;clip-rule:evenodd;stroke-linecap:round;stroke-linejoin:round;" xmlns:vectornator="http://vectornator.io" xmlns:xlink="http://www.w3.org/1999/xlink" xmlns="http://www.w3.org/2000/svg" xml:space="preserve" version="1.1" viewBox="0 0 329 286">
<metadata>
<vectornator:setting key="DynamicGuides" value="1"/>
<vectornator:setting key="Units" value="Points"/>
<vectornator:setting key="RulersVisible" value="1"/>
<vectornator:setting key="SnapToGuides" value="1"/>
<vectornator:setting key="GridSpacing" value="36"/>
</metadata>
<defs/>
<g id="Untitled" vectornator:layerName="Untitled">
<path d="M1.00978+284.733L1.00976+1.26751L238.426+1.26749C321.139+1.26748+355.554+99.4775+302.938+158.259C269.734+195.355+222.229+183.049+195.901+204.133C169.574+225.215+139.554+284.733+73.6878+284.733L1.00978+284.733" opacity="1" fill="#1a1919"/>
<path stroke="#1a1919" stroke-width="2" d="M1.00978+284.733L1.00976+1.26751L238.426+1.26749C321.139+1.26748+355.554+99.4775+302.938+158.259C269.734+195.355+222.229+183.049+195.901+204.133C169.574+225.215+139.554+284.733+73.6878+284.733C73.6878+284.733+1.00978+284.733+1.00978+284.733Z" fill="none" stroke-linecap="butt" opacity="1" stroke-linejoin="miter"/>
<path d="M39.3408+2.1095L39.3408+10.6895L1.85575+10.6895L1.85575+2.10951L39.3408+2.1095ZM39.3408+11.5555L39.3408+20.0405L1.85575+20.0405L1.85575+11.5555L39.3408+11.5555ZM39.3408+20.9755L39.3408+29.4605L1.85576+29.4605L1.85575+20.9755L39.3408+20.9755ZM39.3408+30.3955L39.3408+38.8805L1.85576+38.8805L1.85576+30.3955L39.3408+30.3955ZM39.3408+39.8745L39.3408+48.3595L1.85576+48.3595L1.85576+39.8745L39.3408+39.8745ZM39.3408+49.2355L39.3408+57.7205L1.85576+57.7205L1.85576+49.2355L39.3408+49.2355ZM39.3408+58.6545L39.3408+67.1395L1.85576+67.1395L1.85576+58.6545L39.3408+58.6545ZM39.3408+68.0725L39.3408+76.5575L1.85576+76.5575L1.85576+68.0725L39.3408+68.0725ZM39.3408+77.5155L39.3408+86.0005L1.85576+86.0005L1.85576+77.5155L39.3408+77.5155ZM39.3408+86.8765L39.3408+95.3615L1.85576+95.3615L1.85576+86.8765L39.3408+86.8765ZM39.3408+96.3325L39.3408+104.818L1.85576+104.818L1.85576+96.3325L39.3408+96.3325ZM39.3408+105.799L39.3408+114.284L1.85576+114.284L1.85576+105.799L39.3408+105.799ZM39.3408+115.188L39.3408+123.673L1.85576+123.673L1.85576+115.188L39.3408+115.188ZM39.3408+124.582L39.3408+133.067L1.85576+133.067L1.85576+124.582L39.3408+124.582ZM39.3408+134.014L39.3408+142.498L1.85576+142.499L1.85576+134.015L39.3408+134.014ZM39.3408+143.417L39.3408+151.902L1.85576+151.902L1.85576+143.417L39.3408+143.417ZM39.3408+152.853L39.3408+161.337L1.85577+161.337L1.85576+152.853L39.3408+152.853ZM39.3408+162.273L39.3408+170.757L1.85577+170.757L1.85577+162.273L39.3408+162.273ZM39.3408+171.697L39.3408+180.181L1.85577+180.181L1.85577+171.697L39.3408+171.697ZM39.3408+181.113L39.3408+189.597L1.85577+189.597L1.85577+181.113L39.3408+181.113ZM39.3408+190.532L39.3408+199.017L1.85577+199.017L1.85577+190.532L39.3408+190.532ZM39.3408+199.956L39.3408+208.441L1.85577+208.441L1.85577+199.956L39.3408+199.956ZM39.3408+209.372L39.3408+217.858L1.85577+217.858L1.85577+209.372L39.3408+209.372ZM39.3408+218.816L39.3408+227.3L1.85577+227.3L1.85577+218.816L39.3408+218.816ZM39.3408+228.214L39.3408+236.699L1.85577+236.699L1.85577+228.214L39.3408+228.214ZM39.3408+237.602L39.3408+246.087L1.85577+246.087L1.85577+237.602L39.3408+237.602ZM39.3408+247.108L39.3408+255.593L1.85577+255.593L1.85577+247.108L39.3408+247.108ZM39.3408+256.473L39.3408+264.957L1.85577+264.958L1.85577+256.474L39.3408+256.473ZM39.3408+265.882L39.3408+274.367L1.85577+274.367L1.85577+265.882L39.3408+265.882ZM39.3408+275.275L39.3408+283.885L1.85577+283.886L1.85577+275.276L39.3408+275.275Z" opacity="1" fill="#fffffe"/>
<path d="M40.0978+8.5315L40.0978+13.0685L14.9268+13.0685L14.9268+8.53151L40.0978+8.5315ZM40.0978+27.5875L40.0978+32.1275L14.9268+32.1275L14.9268+27.5875L40.0978+27.5875ZM40.0978+36.9665L40.0978+41.5055L14.9268+41.5055L14.9268+36.9665L40.0978+36.9665ZM40.0978+55.7235L40.0978+60.2615L14.9268+60.2615L14.9268+55.7235L40.0978+55.7235ZM40.0978+65.1005L40.0978+69.6385L14.9268+69.6385L14.9268+65.1005L40.0978+65.1005ZM40.0978+74.4815L40.0978+79.0175L14.9268+79.0175L14.9268+74.4815L40.0978+74.4815ZM40.0978+93.5385L40.0978+98.0765L14.9268+98.0765L14.9268+93.5385L40.0978+93.5385ZM40.0978+102.918L40.0978+107.455L14.9268+107.455L14.9268+102.918L40.0978+102.918ZM40.0978+121.675L40.0978+126.212L14.9268+126.212L14.9268+121.675L40.0978+121.675ZM40.0978+131.051L40.0978+135.591L14.9268+135.591L14.9268+131.051L40.0978+131.051ZM40.0978+140.43L40.0978+144.966L14.9268+144.967L14.9268+140.431L40.0978+140.43ZM40.0978+159.484L40.0978+164.028L14.9268+164.028L14.9268+159.484L40.0978+159.484ZM40.0978+168.564L40.0978+173.099L14.9268+173.099L14.9268+168.564L40.0978+168.564ZM40.0978+187.624L40.0978+192.16L14.9268+192.16L14.9268+187.624L40.0978+187.624ZM40.0978+196.999L40.0978+201.539L14.9268+201.539L14.9268+196.999L40.0978+196.999ZM40.0978+206.376L40.0978+210.914L14.9268+210.914L14.9268+206.376L40.0978+206.376ZM40.0978+225.436L40.0978+229.978L14.9268+229.978L14.9268+225.436L40.0978+225.436ZM40.0978+234.816L40.0978+239.352L14.9268+239.352L14.9268+234.816L40.0978+234.816ZM40.0978+253.574L40.0978+258.111L14.9268+258.111L14.9268+253.574L40.0978+253.574ZM40.0978+262.951L40.0978+267.488L14.9268+267.488L14.9268+262.951L40.0978+262.951ZM40.0978+272.632L40.0978+277.169L14.9268+277.169L14.9268+272.632L40.0978+272.632Z" opacity="1" fill="#1a1919"/>
</g>
</svg>
