<svg xmlns="http://www.w3.org/2000/svg" width="286" height="329">
  <path d="M284.465 328H1V90.584C1 7.871 99.21-26.544 157.992 26.072c37.096 33.204 24.79 80.709 45.874 107.037 21.082 26.327 80.599 56.347 80.599 122.213V328" fill="#1A1919"/>
  <path d="M284.465 328H1V90.584C1 7.871 99.21-26.544 157.992 26.072c37.096 33.204 24.79 80.709 45.874 107.037 21.082 26.327 80.599 56.347 80.599 122.213V328z" stroke="#1A1919" stroke-width="2" fill="none"/>
  <path d="M1.842 289.669h8.58v37.485h-8.58zM11.288 289.669h8.485v37.485h-8.485zM20.708 289.669h8.485v37.485h-8.485zM30.128 289.669h8.485v37.485h-8.485zM39.607 289.669h8.485v37.485h-8.485zM48.968 289.669h8.485v37.485h-8.485zM58.387 289.669h8.485v37.485h-8.485zM67.805 289.669h8.485v37.485h-8.485zM77.248 289.669h8.485v37.485h-8.485zM86.609 289.669h8.485v37.485h-8.485zM96.065 289.669h8.485v37.485h-8.485zM105.531 289.669h8.485v37.485h-8.485zM114.92 289.669h8.485v37.485h-8.485zM124.314 289.669h8.485v37.485h-8.485zM133.747 289.669h8.484v37.485h-8.484zM143.149 289.669h8.485v37.485h-8.485zM152.585 289.669h8.484v37.485h-8.484zM162.005 289.669h8.484v37.485h-8.484zM171.429 289.669h8.484v37.485h-8.484zM180.845 289.669h8.484v37.485h-8.484zM190.264 289.669h8.485v37.485h-8.485zM199.688 289.669h8.485v37.485h-8.485zM209.104 289.669h8.486v37.485h-8.486zM218.548 289.669h8.484v37.485h-8.484zM227.946 289.669h8.485v37.485h-8.485zM237.334 289.669h8.485v37.485h-8.485zM246.84 289.669h8.485v37.485h-8.485zM256.206 289.669h8.484v37.485h-8.484zM265.614 289.669h8.485v37.485h-8.485zM275.008 289.669h8.61v37.485h-8.61z" fill="#FFFFFE"/>
  <path d="M8.264 288.912h4.537v25.171H8.264zM27.32 288.912h4.54v25.171h-4.54zM36.699 288.912h4.539v25.171h-4.539zM55.456 288.912h4.538v25.171h-4.538zM64.833 288.912h4.538v25.171h-4.538zM74.214 288.912h4.536v25.171h-4.536zM93.271 288.912h4.538v25.171h-4.538zM102.65 288.912h4.537v25.171h-4.537zM121.407 288.912h4.537v25.171h-4.537zM130.783 288.912h4.54v25.171h-4.54zM140.163 288.912h4.536v25.171h-4.536zM159.216 288.912h4.544v25.171h-4.544zM168.296 288.912h4.535v25.171h-4.535zM187.356 288.912h4.536v25.171h-4.536zM196.731 288.912h4.54v25.171h-4.54zM206.109 288.912h4.538v25.171h-4.538zM225.168 288.912h4.542v25.171h-4.542zM234.548 288.912h4.536v25.171h-4.536zM253.306 288.912h4.537v25.171h-4.537zM262.683 288.912h4.537v25.171h-4.537zM272.364 288.912h4.537v25.171h-4.537z" fill="#1A1919"/>
</svg>
