<svg version="1.1" id="Layer_1" xmlns="http://www.w3.org/2000/svg" x="0" y="0" viewBox="0 0 200 200" xml:space="preserve">
  <style>
    .st0{fill-rule:evenodd;clip-rule:evenodd;fill:#fff}
  </style>
  <path class="st0" d="M200 0H0v200h200V0z"/>
  <path fill-rule="evenodd" clip-rule="evenodd" d="M194.3 5.7H5.7v188.6h188.6V5.7z"/>
  <path class="st0" d="M156.7 13.1v71h-18l-14.5-18.7c-3.2-4-8.1-6.4-13.3-6.5H78.4c-2.5.1-5.1.4-7.6 1-2.4.7-4.6 2.1-6.1 4.1L52.9 83.9c-1.9 3-1.1 6.9 1.8 8.9s6.9 1.1 8.9-1.8c.1-.1.1-.2.2-.3l10.7-18c.5-.7 1.3-1.2 2.1-1.2h13.6L79.4 92.9l-2.9 11.7-2.1 25.4v.1c.1 1-.7 1.9-1.7 2H51.6c-3.6 0-7.2.3-10.7 1-7.2 1.3-12.7 7-13.8 14.1l53.8-.1c4.1.2 7.7-2.4 8.9-6.3l2.9-29.2 27.8 53.4c1.5 2.8 4.4 4.6 7.5 4.6h13.2l-32.8-66.9 10.3-22.1 11 14c1.3 1.4 3.1 2.3 5.1 2.3h22v78.3l-11.9 11.9H124l14.4-13.7h-14.1c-4.1 1.4-7.9 3.9-10.8 7.1l-6.8 6.6H31.4l11.8-11.8v-24.5l-21.8.2c1.6-4.3 3.6-8.5 5.8-12.5 3.6-5.5 9.7-8.7 16.2-8.7V13.1h113.3zm-27.6 29.6c0-7.4-6-13.5-13.5-13.5-7.4 0-13.5 6-13.5 13.5s6 13.5 13.5 13.5 13.5-6.1 13.5-13.5z"/>
</svg>
